<svg xmlns="http://www.w3.org/2000/svg" viewBox="0 0 361.01 75.98" width="361.01" height="75.98"><defs><style>.cls-1{fill:#fff;}</style></defs><title>Asset 3</title><g id="Layer_2" data-name="Layer 2"><g id="Layer_1-2" data-name="Layer 1"><path class="cls-1" d="M64.95,45.25,85.59,74.4H76.5L56.23,45.22l-1.39.55V74.52H47.6V8.15c7.59-.4,15-.53,22.25,1.68s11.34,8,11.6,15.71c.28,8.35-3.8,15.15-10.87,18C68.95,44.16,67.21,44.56,64.95,45.25ZM54.89,38.84c6.68-.13,13.43.75,17.39-5.66a11.76,11.76,0,0,0-.33-13.27c-4.16-5.81-10.74-4.65-17.06-5Z"/><path class="cls-1" d="M330.17,45.87V74.23a16.8,16.8,0,0,1-7.34.32V8.2c6.83-.47,13.45-.54,19.94,1,9.4,2.26,13.81,7.78,13.87,16.85.06,9.6-4.55,15.85-13.6,18.4-.75.21-1.53.33-2.91.61L361,74.59h-9l-20.4-29.23Zm-.07-7.13c6.87,0,13.72.9,17.66-5.88a12,12,0,0,0-.66-13.24c-2.74-4.05-10.47-5.7-17-3.85Z"/><path class="cls-1" d="M300.39,56H271.95L263.8,74.62h-8.08L286.5,4.81l30,69.65h-8.19Zm-3-7.32L286.3,22.28,275.08,48.71Z"/><path class="cls-1" d="M128.91,8.24H136c0,8.22,0,16.17,0,24.13S136,48,135.57,55.84C134.91,67.15,124.3,76.11,112.24,76c-13-.13-23.3-8.58-23.69-20.23-.51-15.14-.32-30.31-.4-45.47a8.8,8.8,0,0,1,.4-1.88c2.26-.77,4.35-.33,7-.32,0,13.42,0,26.52,0,39.63a40.07,40.07,0,0,0,.83,9.92C98.14,64.45,104.29,69,112.07,69s14-4.64,15.68-11.41a34.64,34.64,0,0,0,.75-8.44q0-19.74,0-39.48A7.76,7.76,0,0,1,128.91,8.24Z"/><path class="cls-1" d="M178.94,59a16.58,16.58,0,0,1,6.47-2c4.41,9.77,8.62,12.8,16.18,11.73a13.1,13.1,0,0,0,11-10.13c1.07-5.73-.77-9.87-6.24-12.9-4.21-2.33-8.68-4.2-13-6.3-6.92-3.36-11.83-8.15-11.22-16.58.55-7.49,4.77-12.25,11.63-14.74a19.67,19.67,0,0,1,21.5,5.17,43.54,43.54,0,0,1,2.57,3.59,13.56,13.56,0,0,1-5.68,3.84c-3.72-5-8.19-8.27-14.87-6.32-4.26,1.24-6.9,4-7.63,8.33-.7,4.17,1.42,7.13,4.92,9,4.4,2.34,9,4.33,13.44,6.56,10.43,5.24,14.25,12.41,11.81,22S209,76.22,198.77,75.93,181.11,69.4,178.94,59Z"/><path class="cls-1" d="M39.35,8.28c.84,2.14.58,4.09.23,6.5H23.77V74.36a14.48,14.48,0,0,1-7.83,0V15H0V8.28Z"/><path class="cls-1" d="M263.25,8.36a14.7,14.7,0,0,1-.09,6.57H247.52V74.06c-2.78,1.19-5.17.93-7.94.3V15.09H224.1c-.86-2.41-.58-4.37-.33-6.72Z"/><path class="cls-1" d="M142.67,73.5c3.55-8.94,14.66-33.71,18.21-42.65,2.47.89,2.08,4.1,4.61,4.54,1-2-.62-3.57-.55-5.33l-.3-1.31,1.33.39c2.73.06,5.21,2,9.14,1.06l-9.27-4.8c1.62-2,4.34-2.18,5.29-4.49-2.41-1.15-4.27,1.59-6.71.21C166,15.78,171.09.11,170.67,0c-2.22,5.18-7.4,15.24-9.68,20.57-2.6-2.16-2.94-5.34-6-7.46l2.15,8.07.32,1.31-1.32-.39c-3-.13-5.77-2.18-9.66-1.07l10.15,4.86-7.92,5.41c3.38,1.2,5.7-2.38,9-1.2Z"/></g></g></svg>